<?xml version="1.0" encoding="utf-8"?>
<!-- Generator: Adobe Illustrator 16.0.4, SVG Export Plug-In . SVG Version: 6.00 Build 0)  -->
<!DOCTYPE svg PUBLIC "-//W3C//DTD SVG 1.1//EN" "http://www.w3.org/Graphics/SVG/1.1/DTD/svg11.dtd">
<svg version="1.1" id="Layer_1" xmlns="http://www.w3.org/2000/svg" xmlns:xlink="http://www.w3.org/1999/xlink" x="0px" y="0px"
	 width="1280px" height="1024px" viewBox="0 0 1280 1024" enable-background="new 0 0 1280 1024" xml:space="preserve">
<title>standard tile</title>
<desc>Created with Sketch.</desc>
<g id="Page-1">
	<g id="standard-tile">
		<rect id="Rectangle-9" x="0" y="0" fill="none" width="1280" height="1024"/>
		<rect id="Rectangle-Copy-5" x="20" y="460" fill="#D9D9D9" width="398" height="390"/>
		<rect id="Rectangle-Copy-6" x="440" y="460" fill="#D9D9D9" width="398" height="390"/>
		<rect id="Rectangle-Copy-8" x="862" y="870" fill="#D9D9D9" width="398" height="390"/>
		<rect id="Rectangle-Copy-14" x="860" y="460" fill="#D9D9D9" width="398" height="390"/>
		<rect id="Rectangle-Copy-9" x="20" y="50" fill="#D9D9D9" width="398" height="390"/>
		<rect id="Rectangle-Copy-10" x="20" y="460" fill="#B7B7B7" width="398" height="24"/>
		<rect id="Rectangle-Copy-11" x="862" y="870" fill="#B7B7B7" width="398" height="24"/>
		<rect id="Rectangle-Copy-15" x="860" y="460" fill="#B7B7B7" width="398" height="24"/>
		<rect id="Rectangle-Copy-12" x="20" y="50" fill="#B7B7B7" width="398" height="24"/>
		<rect id="Rectangle-Copy-13" x="440" y="460" fill="#B7B7B7" width="398" height="24"/>
		<rect id="Rectangle-Copy-7" x="438" y="50" fill="#D9D9D9" width="822" height="390"/>
		<rect id="Rectangle-Copy-16" x="20" y="870" fill="#D9D9D9" width="822" height="390"/>
		<rect id="Rectangle-Copy" x="438" y="50" fill="#B7B7B7" width="822" height="24"/>
		<rect id="Rectangle-Copy-2" x="20" y="870" fill="#B7B7B7" width="822" height="24"/>
	</g>
</g>
</svg>
